<?xml version="1.0" encoding="utf-8"?>
<!-- Generator: Adobe Illustrator 16.0.0, SVG Export Plug-In . SVG Version: 6.00 Build 0)  -->
<!DOCTYPE svg PUBLIC "-//W3C//DTD SVG 1.1//EN" "http://www.w3.org/Graphics/SVG/1.1/DTD/svg11.dtd">
<svg version="1.1" id="Layer_2" xmlns="http://www.w3.org/2000/svg" xmlns:xlink="http://www.w3.org/1999/xlink" x="0px" y="0px"
	 width="512px" height="512px" viewBox="0 0 512 512" enable-background="new 0 0 512 512" xml:space="preserve">
<g>
	<defs>
		<circle id="SVGID_1_" cx="256" cy="256" r="256"/>
	</defs>
	<clipPath id="SVGID_2_">
		<use xlink:href="#SVGID_1_"  overflow="visible"/>
	</clipPath>
	
		<linearGradient id="SVGID_3_" gradientUnits="userSpaceOnUse" x1="-39.9243" y1="586.4961" x2="-29.3737" y2="597.8377" gradientTransform="matrix(0 -42.2827 39.3387 0 -23037.6934 -1208.0149)">
		<stop  offset="0" style="stop-color:#FFDD55"/>
		<stop  offset="0.5" style="stop-color:#FF543E"/>
		<stop  offset="1" style="stop-color:#C837AB"/>
	</linearGradient>
	<path clip-path="url(#SVGID_2_)" fill="url(#SVGID_3_)" d="M33.494,35.656c-40.235,41.792-32,86.187-32,221.057
		c0,112-19.542,224.277,82.73,250.709c31.936,8.213,314.901,8.213,346.795-0.043c42.58-10.986,77.227-45.525,81.963-105.75
		c0.66-8.404,0.66-281.279-0.021-289.855c-5.035-64.149-44.523-101.12-96.555-108.608c-11.926-1.728-14.314-2.24-75.5-2.347
		C123.883,0.925,76.31-8.738,33.494,35.656L33.494,35.656z"/>
</g>
<path fill="#FFFFFF" stroke="#FFFFFF" stroke-width="10" stroke-miterlimit="10" d="M257.45,116.946
	c-57.322,0-111.754-5.099-132.545,48.26c-8.588,22.039-7.341,50.66-7.341,91.642c0,35.962-1.153,69.76,7.341,91.625
	c20.743,53.392,75.618,48.276,132.513,48.276c54.891,0,111.486,5.715,132.529-48.276c8.604-22.26,7.341-50.454,7.341-91.625
	c0-54.653,3.015-89.937-23.49-116.427c-26.839-26.837-63.132-23.475-116.411-23.475H257.45z M244.915,142.157
	c119.569-0.189,134.786-13.482,126.388,171.175c-2.982,65.311-52.712,58.143-113.837,58.143
	c-111.454,0-114.659-3.189-114.659-114.691c0-112.795,8.84-114.563,102.108-114.657V142.157z M332.121,165.379
	c-9.267,0-16.782,7.515-16.782,16.781c0,9.267,7.516,16.781,16.782,16.781s16.781-7.514,16.781-16.781
	C348.902,172.894,341.388,165.379,332.121,165.379z M257.45,185.002c-39.672,0-71.83,32.173-71.83,71.845
	c0,39.672,32.157,71.828,71.83,71.828c39.673,0,71.813-32.156,71.813-71.828C329.264,217.175,297.123,185.002,257.45,185.002
	L257.45,185.002z M257.45,210.214c61.646,0,61.726,93.268,0,93.268C195.818,303.481,195.724,210.214,257.45,210.214z"/>
</svg>
