<?xml version="1.0" encoding="iso-8859-1"?>
<!-- Generator: Adobe Illustrator 19.0.0, SVG Export Plug-In . SVG Version: 6.00 Build 0)  -->
<svg version="1.1" id="Capa_1" xmlns="http://www.w3.org/2000/svg" xmlns:xlink="http://www.w3.org/1999/xlink" x="0px" y="0px"
	 viewBox="0 0 368 368" style="enable-background:new 0 0 368 368;" xml:space="preserve">
<g>
	<g>
		<g>
			<path d="M360,144H8c-4.416,0-8,3.584-8,8v64c0,4.416,3.584,8,8,8h352c4.416,0,8-3.584,8-8v-64C368,147.584,364.416,144,360,144z
				 M352,208H16v-48h336V208z"/>
			<path d="M8,96h224c4.416,0,8-3.584,8-8V24c0-4.416-3.584-8-8-8H8c-4.416,0-8,3.584-8,8v64C0,92.416,3.584,96,8,96z M16,32h208v48
				H16V32z"/>
			<path d="M296,272H8c-4.416,0-8,3.584-8,8v64c0,4.416,3.584,8,8,8h288c4.416,0,8-3.584,8-8v-64C304,275.584,300.416,272,296,272z
				 M288,336H16v-48h272V336z"/>
		</g>
	</g>
</g>
<g>
</g>
<g>
</g>
<g>
</g>
<g>
</g>
<g>
</g>
<g>
</g>
<g>
</g>
<g>
</g>
<g>
</g>
<g>
</g>
<g>
</g>
<g>
</g>
<g>
</g>
<g>
</g>
<g>
</g>
</svg>
