<?xml version="1.0" encoding="utf-8"?>
<!-- Generator: Adobe Illustrator 22.0.0, SVG Export Plug-In . SVG Version: 6.00 Build 0)  -->
<svg version="1.1" id="Layer_1" xmlns="http://www.w3.org/2000/svg" xmlns:xlink="http://www.w3.org/1999/xlink" x="0px" y="0px"
	 viewBox="0 0 509.9 545.9" style="enable-background:new 0 0 509.9 545.9;" xml:space="preserve">
<style type="text/css">
	.st0{clip-path:url(#SVGID_2_);}
</style>
<g>
	<path d="M314.3,214.7c-5.5,0-10,4.5-10,10v189c0,5.5,4.5,10,10,10c5.5,0,10-4.5,10-10v-189C324.3,219.2,319.9,214.7,314.3,214.7
		L314.3,214.7z M314.3,214.7"/>
	<g>
		<defs>
			<rect id="SVGID_1_" x="80.9" y="60" width="348" height="427"/>
		</defs>
		<clipPath id="SVGID_2_">
			<use xlink:href="#SVGID_1_"  style="overflow:visible;"/>
		</clipPath>
		<path class="st0" d="M196.3,214.7c-5.5,0-10,4.5-10,10v189c0,5.5,4.5,10,10,10c5.5,0,10-4.5,10-10v-189
			C206.3,219.2,201.9,214.7,196.3,214.7L196.3,214.7z M196.3,214.7"/>
		<path class="st0" d="M110.3,187.1v246.4c0,14.6,5.3,28.2,14.7,38.1c9.3,9.8,22.2,15.4,35.7,15.4h189.2c13.5,0,26.4-5.6,35.7-15.4
			c9.3-9.8,14.7-23.5,14.7-38.1V187.1c18.5-4.9,30.6-22.8,28.1-41.9c-2.5-19-18.7-33.3-37.9-33.3h-51.2V99.5
			c0.1-10.5-4.1-20.6-11.5-28c-7.4-7.4-17.5-11.6-28.1-11.5h-88.8c-10.5-0.1-20.6,4-28.1,11.5c-7.4,7.4-11.6,17.5-11.5,28V112h-51.2
			c-19.2,0-35.4,14.2-37.9,33.3C79.8,164.3,91.8,182.2,110.3,187.1L110.3,187.1z M349.9,467H160.7c-17.1,0-30.4-14.7-30.4-33.5V188
			h250v245.5C380.3,452.3,367,467,349.9,467L349.9,467z M191.3,99.5c-0.1-5.2,2-10.2,5.7-13.9c3.7-3.7,8.7-5.7,13.9-5.6h88.8
			c5.2-0.1,10.2,1.9,13.9,5.6c3.7,3.7,5.7,8.7,5.7,13.9V112h-128V99.5z M120.1,132h270.4c9.9,0,18,8.1,18,18s-8.1,18-18,18H120.1
			c-9.9,0-18-8.1-18-18S110.2,132,120.1,132L120.1,132z M120.1,132"/>
	</g>
	<path d="M255.3,214.7c-5.5,0-10,4.5-10,10v189c0,5.5,4.5,10,10,10c5.5,0,10-4.5,10-10v-189C265.3,219.2,260.9,214.7,255.3,214.7
		L255.3,214.7z M255.3,214.7"/>
</g>
</svg>
