<?xml version="1.0" encoding="iso-8859-1"?>
<!-- Generator: Adobe Illustrator 19.0.0, SVG Export Plug-In . SVG Version: 6.00 Build 0)  -->
<svg version="1.1" id="Layer_1" xmlns="http://www.w3.org/2000/svg" xmlns:xlink="http://www.w3.org/1999/xlink" x="0px" y="0px"
	 viewBox="0 0 512 512" style="enable-background:new 0 0 512 512;" xml:space="preserve">
<g>
	<g>
		<path d="M256,0C114.833,0,0,114.844,0,256c0,44.729,11.917,88.958,34.479,127.917C80.188,462.917,165.063,512,256,512
			s175.813-49.083,221.521-128.083C500.083,344.958,512,300.729,512,256C512,114.844,397.167,0,256,0z M362.667,256
			c0,18.602-4.956,37.026-14.35,53.284l-0.004-0.003c-19.063,32.927-54.438,53.385-92.313,53.385s-73.25-20.458-92.313-53.385
			l-0.004,0.003c-9.395-16.258-14.35-34.682-14.35-53.284c0-58.813,47.854-106.667,106.667-106.667S362.667,197.188,362.667,256z
			 M21.333,256c0-125.796,99.57-228.492,224-234.126V128.54C179.734,133.99,128,189.017,128,256c0,18.802,4.208,37.448,12.271,54.5
			l-92.458,53.385C30.458,330.521,21.333,293.448,21.333,256z M256,490.667c-79.75,0-154.083-41.514-197.098-108.548l92.277-53.281
			C174.979,363.007,214.099,384,256,384s81.021-20.993,104.82-55.163l92.277,53.281C410.083,449.152,335.75,490.667,256,490.667z
			 M464.188,363.885L371.729,310.5C379.792,293.448,384,274.802,384,256c0-66.99-51.729-122.125-117.333-127.563V21.573
			c124.458,5.604,224,108.604,224,234.427C490.667,293.448,481.542,330.521,464.188,363.885z"/>
	</g>
</g>
<g>
</g>
<g>
</g>
<g>
</g>
<g>
</g>
<g>
</g>
<g>
</g>
<g>
</g>
<g>
</g>
<g>
</g>
<g>
</g>
<g>
</g>
<g>
</g>
<g>
</g>
<g>
</g>
<g>
</g>
</svg>
