<?xml version="1.0" encoding="utf-8"?>
<!-- Generator: Adobe Illustrator 22.0.0, SVG Export Plug-In . SVG Version: 6.00 Build 0)  -->
<svg version="1.1" id="Layer_1" xmlns="http://www.w3.org/2000/svg" xmlns:xlink="http://www.w3.org/1999/xlink" x="0px" y="0px"
	 viewBox="-49 141 512 512" style="enable-background:new -49 141 512 512;" xml:space="preserve">
<path d="M429.2,238.5l-64-64.1c-16.1-16.1-44.2-16.2-60.4,0L18.1,464c-1.3,1.3-2.2,2.9-2.7,4.6l-42.7,149.5c-1.1,3.7,0,7.7,2.7,10.5
	c2,2,4.8,3.1,7.5,3.1c1,0,2-0.1,2.9-0.4l149.3-42.7c1.7-0.5,3.3-1.4,4.6-2.7l289.3-287c8.1-8.1,12.5-18.8,12.5-30.2
	S437.2,246.6,429.2,238.5z M61.7,482.3l18.4,36.8c1,2.1,2.7,3.7,4.8,4.8l36.8,18.4v28l-51,14.6l-51.5-51.5l14.6-51H61.7z
	 M137.1,526.1l-29.4-14.7l205-205l39.3,39.3L143,552.7v-17.1C143,531.6,140.7,527.9,137.1,526.1z M92.6,496.3l-14.7-29.4
	c-1.8-3.6-5.5-5.9-9.5-5.9H51.3l207.1-208.9l39.3,39.3L92.6,496.3z M12.4,556.8l34.7,34.7l-48.6,13.9L12.4,556.8z M414.1,284.1
	l-47,46.6l-93.7-93.7l46.6-47c8.1-8.1,22.1-8.1,30.2,0l64,64c4,4,6.2,9.4,6.2,15.1S418.1,280.1,414.1,284.1z"/>
</svg>
