<?xml version="1.0" encoding="utf-8"?>
<!-- Generator: Adobe Illustrator 22.0.0, SVG Export Plug-In . SVG Version: 6.00 Build 0)  -->
<svg version="1.1" id="Layer_1" xmlns="http://www.w3.org/2000/svg" xmlns:xlink="http://www.w3.org/1999/xlink" x="0px" y="0px"
	 viewBox="0 0 170.1 170.1" style="enable-background:new 0 0 170.1 170.1;" xml:space="preserve">
<style type="text/css">
	.st0{fill:#010002;}
</style>
<g>
	<path class="st0" d="M84.8,161.8c-42.1,0-76.4-34.3-76.4-76.4C8.4,43.3,42.7,9,84.8,9c42.1,0,76.4,34.3,76.4,76.4
		C161.3,127.5,127,161.8,84.8,161.8L84.8,161.8z M84.8,17.7c-37.3,0-67.7,30.4-67.7,67.7c0,37.3,30.4,67.7,67.7,67.7
		c37.3,0,67.7-30.4,67.7-67.7C152.5,48.1,122.2,17.7,84.8,17.7L84.8,17.7z M84.8,17.7"/>
	<path class="st0" d="M114.9,89.8H54.7c-2.4,0-4.4-1.9-4.4-4.4c0-2.4,2-4.4,4.4-4.4h60.3c2.4,0,4.4,2,4.4,4.4
		C119.3,87.8,117.4,89.8,114.9,89.8L114.9,89.8z M114.9,89.8"/>
</g>
</svg>
