<?xml version="1.0" encoding="utf-8"?>
<!-- Generator: Adobe Illustrator 22.0.0, SVG Export Plug-In . SVG Version: 6.00 Build 0)  -->
<svg version="1.1" id="Layer_1" xmlns="http://www.w3.org/2000/svg" xmlns:xlink="http://www.w3.org/1999/xlink" x="0px" y="0px"
	 viewBox="0 0 509.9 545.9" style="enable-background:new 0 0 509.9 545.9;" xml:space="preserve">
<g>
	<path d="M219.7,316.1c0.7,3.9,3.9,6.8,7.9,7.5c3.8,0.7,7.8-1.2,9.8-4.6c5.8-9.8,11.5-19.6,18.5-28.6c11.3-14.8,24.6-27.4,40.9-36.5
		c11.2-6.3,23.1-10.5,35.8-12.4c6.5-1,13-1.3,19.7-0.9c0,0.6,0.1,1.2,0.1,1.7c0,17.2,0,34.5,0,51.7c0,4.8,2.8,8.6,7.4,9.7
		c3.5,0.8,6.7-0.1,9.2-2.7c20.6-20.8,41.1-41.6,61.7-62.4c13.1-13.2,26.2-26.5,39.3-39.8c1.2-1.2,2.2-2.6,3.3-3.9
		c0,0,1.6-2.3,1.6-4.6c0-2.3-1.6-3.7-1.6-3.7c-1.9-2.1-4-4.3-6.1-6.4c-32.7-32.8-65.5-65.6-98.2-98.3c-2.9-2.9-7-3.8-10.7-2.3
		c-3.7,1.5-6,5-6,9.3c0,16.6,0,33.2,0,49.8c0,0.6,0,1.2,0,1.9c-2.4,0.2-4.7,0.3-7,0.5c-17.5,1.3-34.5,5.1-50.7,12.1
		c-15.9,6.8-29.1,17.4-40.4,30.3c-29.9,34.2-41.7,74.2-36.8,119.3C218,307.2,218.9,311.7,219.7,316.1z M236.2,271.4
		c2-20.8,8.2-40.1,19.3-57.8c7-11,15.6-20.6,25.4-29.2c9.2-8.1,19.9-13.2,31.3-17.2c9.2-3.2,18.6-5.2,28.2-6.1
		c6.9-0.6,13.8-0.9,20.8-1.1c6.5-0.2,10.5-4.1,10.5-10.7c0-11.7,0-23.4,0-35.1v-1.6c0.1-0.1,0.2-0.1,0.3-0.2
		c26.1,26.2,52.3,52.3,78.6,78.6c-26.2,26.5-52.4,53-78.5,79.4c-0.1,0-0.2-0.1-0.3-0.1v-1.6c0-12-0.1-23.9,0.1-35.9
		c0.1-4.7-2.7-10-9.3-10.8c-16.3-2-32.4-0.9-48.2,3.7c-20.7,6-38.8,16.8-54.5,31.6c-8.6,8-16.1,17-23,26.5c-0.2,0.3-0.4,0.6-0.7,0.9
		c0,0.1-0.2,0.1-0.6,0.3C235.7,280.3,235.8,275.8,236.2,271.4z"/>
	<path d="M448.1,375.4c0-5.2-3.6-9.3-8.6-9.8c-6-0.6-10.7,3.7-10.7,9.8c0,13.6,0.1,27.1-0.1,40.7c0,3.1-0.5,6.4-1.5,9.4
		c-3.7,11.7-14.5,19.7-26.8,19.9c-0.5,0-1,0-1.5,0c-105,0-209.9,0-314.9,0c-7.1,0-13.4-1.9-18.9-6.5c-6.9-5.7-10.5-13.1-10.9-22.1
		c0-0.4,0-0.8,0-1.2c0-76.9,0-153.8,0-230.6c0-12.8,6.1-22,17.6-27.4c3.7-1.7,7.7-2.4,11.8-2.4c21.9,0,43.8,0,65.6,0
		c2.9,0,5.5-0.7,7.6-2.8c2.9-2.9,3.8-7,2.1-10.7c-1.7-3.9-4.8-5.9-9-5.9c-10.8,0-21.6,0-32.4,0c-11.5,0-23.1-0.2-34.6,0.1
		c-19.6,0.5-34,9.8-43.2,27.3c-2.4,4.7-3.8,9.8-4.5,15c-0.1,0.6-0.2,1.2-0.4,1.7l0,241.1c0.1,0,0.1,0,0.2,0c0.2,1.1,0.3,2.1,0.5,3.2
		c3.5,20.6,19.2,36.5,39.6,40.1c2.9,0.5,5.9,0.7,8.8,0.7c105,0,210.1,0,315.1,0.1c24.4,0,45.1-17.7,48.5-42c0.3-1.9,0.4-3.9,0.4-5.9
		C448.1,403.2,448.1,389.3,448.1,375.4z"/>
</g>
</svg>
